<svg id="图层_1" data-name="图层 1" xmlns="http://www.w3.org/2000/svg" viewBox="0 0 306.14 306.53"><defs><style>.cls-1{fill:none;stroke:#1877bf;stroke-miterlimit:10;stroke-width:50px;}.cls-2{fill:#1877bf;}</style></defs><title>Logo </title><path class="cls-1" d="M-182.76,204.27c-53.47,6.3-117-60.77-117-127.81A128.31,128.31,0,0,1-171.44-51.85C-104.32-51.85-47.3,0-43.61,65.35c0,.13-.44,0-.53.05L-182.73,204c-.06,0-.1.28,0,.28s-.05-.29,0-.28S-182.69,204.26-182.76,204.27Z" transform="translate(324.75 76.85)"/><path class="cls-2" d="M-31.07,179.37l-42.79-42.79L-142,68.41l-15.6-15.59c-8.88-8.89-25.17-9.56-33.94,0s-9.48,24.45,0,33.94l42.8,42.79,68.16,68.17L-65,213.31c8.89,8.89,25.17,9.55,33.94,0s9.48-24.45,0-33.94Z" transform="translate(324.75 76.85)"/></svg>